<svg width="202" height="48" viewBox="0 0 202 48" fill="none" xmlns="http://www.w3.org/2000/svg">
<path d="M3.12183 45.6476V18.9019H6.46505L20.4137 39.797V18.9019H23.7569V45.6476H20.4137L6.46505 24.7339V45.6476H3.12183Z" fill="black"/>
<path d="M28.2076 45.6476V18.9019H45.1094V22.0408H31.5137V30.4174H42.8806V33.5563H31.5137V42.5087H45.1094V45.6476H28.2076Z" fill="black"/>
<path d="M55.7221 45.6476V22.0408H46.6026V18.9019H68.1478V22.0408H59.0282V45.6476H55.7221Z" fill="black"/>
<path d="M72.7617 45.6475V44.6715L95.9722 6.88196H73.6767V1.72746H105.122V2.76446L82.0337 40.493H104.817V45.6475H72.7617Z" fill="#009F8E"/>
<path d="M120.756 46.3525C118.265 46.3525 116.087 45.8041 114.223 44.7075C112.374 43.5951 110.933 42.052 109.899 40.078C108.865 38.0883 108.348 35.7696 108.348 33.122C108.348 30.349 108.857 27.952 109.875 25.931C110.894 23.8943 112.312 22.3276 114.129 21.231C115.962 20.1186 118.108 19.5625 120.568 19.5625C123.122 19.5625 125.291 20.15 127.077 21.325C128.879 22.5 130.226 24.1763 131.119 26.354C132.028 28.5316 132.42 31.1245 132.294 34.1325H128.064V32.6285C128.017 29.5108 127.383 27.1843 126.161 25.649C124.939 24.098 123.122 23.3225 120.709 23.3225C118.124 23.3225 116.158 24.1528 114.81 25.8135C113.463 27.4741 112.789 29.8555 112.789 32.9575C112.789 35.9498 113.463 38.2685 114.81 39.9135C116.158 41.5585 118.077 42.381 120.568 42.381C122.244 42.381 123.701 41.9971 124.939 41.2295C126.177 40.4618 127.148 39.3573 127.853 37.916L131.871 39.3025C130.884 41.5428 129.396 43.2818 127.406 44.5195C125.432 45.7415 123.216 46.3525 120.756 46.3525ZM111.379 34.1325V30.772H130.132V34.1325H111.379Z" fill="#009F8E"/>
<path d="M136.586 45.6475V20.2675H140.323V26.401L139.712 25.602C140.01 24.8186 140.393 24.098 140.863 23.44C141.349 22.782 141.89 22.2415 142.485 21.8185C143.143 21.2858 143.887 20.8785 144.717 20.5965C145.548 20.3145 146.394 20.15 147.255 20.103C148.117 20.0403 148.924 20.0951 149.676 20.2675V24.192C148.799 23.957 147.835 23.8943 146.785 24.004C145.736 24.1136 144.764 24.4975 143.871 25.1555C143.057 25.7351 142.422 26.4401 141.968 27.2705C141.529 28.1008 141.224 29.0016 141.051 29.973C140.879 30.9286 140.793 31.9078 140.793 32.9105V45.6475H136.586Z" fill="#009F8E"/>
<path d="M159.475 31.3974C161.725 32.3267 164.048 32.1341 166.162 31.5212C165.798 37.5576 168.894 39.9509 168.894 39.9509C168.894 39.9509 168.555 38.2485 168.458 37.2154C167.888 31.1469 168.763 29.0664 170.22 24.7068C171.34 21.3579 172.886 18.236 175.21 15.5432C177.372 13.0386 180.008 11.2356 183.174 10.2323C183.264 10.2038 183.349 10.1664 183.421 10.0632C183.212 10.0998 183.002 10.1291 182.796 10.173C178.541 11.0782 175.317 13.4941 172.829 16.983C170.94 19.6325 169.67 22.5809 168.666 25.6559C168.632 25.7585 168.599 25.861 168.552 26.0053C168.506 25.9394 168.473 25.9071 168.458 25.8683C167.204 22.5443 167.173 19.2422 168.664 15.9782C170.116 12.8021 172.517 10.5348 175.536 8.87021C178.762 7.09065 182.231 6.29608 185.904 6.35906C187.361 6.38395 188.798 6.57582 190.216 6.90537C190.295 6.92368 190.373 6.95224 190.461 6.97934C190.022 7.57106 189.578 8.13422 189.173 8.72375C187.533 11.1148 186.37 13.7453 185.368 16.4498C184.809 17.9614 184.241 19.4626 183.38 20.8394C181.326 24.1261 178.373 26.039 174.556 26.608C173.619 26.7478 172.662 26.7618 171.713 26.8204C171.514 26.8328 171.378 26.8548 171.302 27.0774C170.408 29.6889 169.751 32.3436 169.831 35.1308C169.876 36.6863 170.175 38.1832 170.944 39.5585C171.949 41.3586 173.434 42.4995 175.492 42.8393C177.573 43.1828 179.651 43.226 181.696 42.6423C184.657 41.7972 186.846 39.951 188.419 37.3351C190.053 34.6189 190.861 31.6383 191.247 28.5208C191.549 26.0792 191.618 23.6289 191.462 21.1763C191.256 17.9335 190.694 14.7625 189.398 11.7549C189.35 11.6443 189.323 11.4868 189.365 11.3821C189.732 10.4601 191.553 7.97457 192.377 7.2481C193.754 8.59998 194.887 10.1349 195.807 11.8288C197.973 15.8186 198.756 20.1122 198.621 24.6102C198.493 28.8775 197.486 32.9009 195.146 36.5054C191.972 41.3952 187.511 44.4322 181.729 45.3593C176.7 46.1656 171.957 45.3 167.641 42.5098C164.001 40.1561 161.533 36.8503 159.968 32.8401C159.809 32.4315 159.671 32.0148 159.524 31.601C159.51 31.5593 159.502 31.5131 159.475 31.3974Z" fill="#009F8E"/>
<path d="M179.347 4.18073C177.842 4.07931 176.767 4.18659 175.497 4.47586C174.06 4.80321 172.777 5.444 171.615 6.34037C169.578 7.91122 168.225 9.97419 167.28 12.336C166.55 14.1565 166.087 16.0459 165.802 17.9808C165.649 19.0185 165.541 20.0628 165.407 21.151C165.305 21.1034 165.209 21.0697 165.124 21.017C163.277 19.8592 161.244 19.2689 159.09 19.0807C158.718 19.0485 158.701 18.8903 158.755 18.6179C159.098 16.8654 159.601 15.1649 160.343 13.5362C161.755 10.4429 163.745 7.79917 166.438 5.70984C169.188 3.57729 172.305 2.28912 175.749 1.83801C179.882 1.29682 183.845 1.89513 187.576 3.80358C188.243 4.14485 188.861 4.58351 189.503 4.97384C189.603 5.03463 189.712 5.08223 189.869 5.16279C188.897 5.04635 187.99 4.87132 187.077 4.84349C185.752 4.80321 184.422 4.87059 183.095 4.8867C182.929 4.88889 182.759 4.87791 182.599 4.83836C181.95 4.67871 181.429 4.46711 180.657 4.33379C180.15 4.24615 179.861 4.21538 179.347 4.18073Z" fill="#009F8E"/>
<path d="M167.501 28.9331C167.378 28.7713 167.299 28.668 167.22 28.564C165.79 26.6695 164.183 24.9668 162.074 23.8053C160.346 22.8533 158.502 22.4652 156.537 22.6717C156.433 22.6827 156.33 22.7105 156.232 22.7669C156.852 22.8247 157.478 22.8467 158.091 22.9478C160.318 23.3139 162.181 24.4124 163.845 25.8852C164.992 26.9002 165.976 28.0631 166.881 29.2956C166.924 29.3535 166.959 29.4164 167.053 29.5658C166.281 29.8104 165.558 30.0931 164.809 30.2674C161.352 31.0722 158.685 29.8024 156.575 27.084C155.346 25.4985 154.013 24.0097 152.376 22.8233C152.15 22.6592 151.914 22.5076 151.636 22.3194C151.84 22.192 152.014 22.0697 152.199 21.9679C153.86 21.0576 155.648 20.6351 157.533 20.6021C159.874 20.5618 162.092 21.0415 164.114 22.2535C165.739 23.2268 166.962 24.5428 167.439 26.4344C167.641 27.2348 167.667 28.0433 167.501 28.9331Z" fill="#009F8E"/>
<path d="M3.12183 9.58599V1.80429H3.85136L6.91 8.34848L9.95244 1.80429H10.6928V9.58059H9.93622V3.57679L7.16399 9.58599H6.65061L3.88379 3.57679V9.58599H3.12183Z" fill="black"/>
<path d="M12.3174 9.58599V1.80429H13.1118V9.58599H12.3174Z" fill="black"/>
<path d="M14.7319 9.58599V1.80429H17.0934C17.1763 1.80429 17.3168 1.80609 17.5149 1.80969C17.7167 1.81329 17.9094 1.8277 18.0932 1.85292C18.684 1.93578 19.1776 2.15554 19.5739 2.51221C19.9701 2.86887 20.2674 3.3228 20.4655 3.874C20.6637 4.42521 20.7627 5.03225 20.7627 5.69514C20.7627 6.35803 20.6637 6.96507 20.4655 7.51627C20.2674 8.06748 19.9701 8.52141 19.5739 8.87807C19.1776 9.23473 18.684 9.4545 18.0932 9.53736C17.913 9.55897 17.7203 9.57338 17.5149 9.58059C17.3096 9.58419 17.1691 9.58599 17.0934 9.58599H14.7319ZM15.5533 8.82403H17.0934C17.2411 8.82403 17.3997 8.82043 17.569 8.81323C17.7419 8.80242 17.8896 8.7844 18.0121 8.75919C18.466 8.67993 18.8317 8.49619 19.1091 8.20798C19.3901 7.91977 19.5955 7.55951 19.7252 7.12719C19.8549 6.69127 19.9197 6.21392 19.9197 5.69514C19.9197 5.17276 19.8549 4.6936 19.7252 4.25769C19.5955 3.82177 19.3901 3.4615 19.1091 3.17689C18.8281 2.89228 18.4624 2.71035 18.0121 2.63109C17.8896 2.60587 17.7401 2.58966 17.5636 2.58246C17.3907 2.57165 17.2339 2.56625 17.0934 2.56625H15.5533V8.82403Z" fill="black"/>
<path d="M21.9935 9.58599V1.80429H24.355C24.4379 1.80429 24.5784 1.80609 24.7765 1.80969C24.9783 1.81329 25.171 1.8277 25.3547 1.85292C25.9456 1.93578 26.4391 2.15554 26.8354 2.51221C27.2317 2.86887 27.5289 3.3228 27.7271 3.874C27.9252 4.42521 28.0243 5.03225 28.0243 5.69514C28.0243 6.35803 27.9252 6.96507 27.7271 7.51627C27.5289 8.06748 27.2317 8.52141 26.8354 8.87807C26.4391 9.23473 25.9456 9.4545 25.3547 9.53736C25.1746 9.55897 24.9819 9.57338 24.7765 9.58059C24.5712 9.58419 24.4307 9.58599 24.355 9.58599H21.9935ZM22.8149 8.82403H24.355C24.5027 8.82403 24.6612 8.82043 24.8306 8.81323C25.0035 8.80242 25.1512 8.7844 25.2737 8.75919C25.7276 8.67993 26.0933 8.49619 26.3707 8.20798C26.6517 7.91977 26.857 7.55951 26.9867 7.12719C27.1164 6.69127 27.1813 6.21392 27.1813 5.69514C27.1813 5.17276 27.1164 4.6936 26.9867 4.25769C26.857 3.82177 26.6517 3.4615 26.3707 3.17689C26.0897 2.89228 25.724 2.71035 25.2737 2.63109C25.1512 2.60587 25.0017 2.58966 24.8252 2.58246C24.6522 2.57165 24.4955 2.56625 24.355 2.56625H22.8149V8.82403Z" fill="black"/>
<path d="M29.3631 9.58599V1.80429H30.1575V8.82403H33.8538V9.58599H29.3631Z" fill="black"/>
<path d="M34.7751 9.58599V1.80429H39.6387V2.56625H35.5695V5.25742H38.9902V6.01938H35.5695V8.82403H39.6387V9.58599H34.7751Z" fill="black"/>
<path d="M43.1027 9.58599V1.80429H47.9663V2.56625H43.8971V5.25742H47.3178V6.01938H43.8971V8.82403H47.9663V9.58599H43.1027Z" fill="black"/>
<path d="M48.7262 9.58599L51.4066 1.80429H52.4603L55.1407 9.58599H54.3139L51.7686 2.24741H52.0821L49.553 9.58599H48.7262ZM49.9205 7.70001V6.95426H53.941V7.70001H49.9205Z" fill="black"/>
<path d="M58.6074 9.74811C58.0634 9.74811 57.5735 9.65804 57.1376 9.47791C56.7052 9.29418 56.3468 9.03479 56.0622 8.69974C55.7812 8.3647 55.5974 7.9666 55.511 7.50547L56.3216 7.37037C56.4513 7.87474 56.7251 8.27103 57.143 8.55924C57.5609 8.84385 58.0598 8.98615 58.6399 8.98615C59.0217 8.98615 59.364 8.92671 59.6666 8.80782C59.9692 8.68533 60.207 8.51241 60.3799 8.28904C60.5529 8.06568 60.6393 7.80088 60.6393 7.49466C60.6393 7.29291 60.6033 7.12179 60.5312 6.98128C60.4592 6.83718 60.3637 6.71829 60.2448 6.62462C60.1259 6.53095 59.9963 6.4535 59.8558 6.39225C59.7152 6.3274 59.5783 6.27516 59.445 6.23554L57.4726 5.6465C57.2348 5.57805 57.0151 5.49159 56.8133 5.38711C56.6116 5.27903 56.435 5.15114 56.2837 5.00343C56.136 4.85212 56.0207 4.67559 55.9379 4.47384C55.855 4.2721 55.8136 4.04153 55.8136 3.78214C55.8136 3.34261 55.9289 2.96254 56.1594 2.6419C56.39 2.32127 56.7052 2.07448 57.1051 1.90156C57.505 1.72863 57.9608 1.64397 58.4723 1.64757C58.9911 1.64757 59.4541 1.73944 59.8612 1.92317C60.2719 2.10691 60.6105 2.3699 60.8771 2.71215C61.1437 3.0508 61.3202 3.45249 61.4067 3.91724L60.5745 4.06855C60.5204 3.7299 60.3961 3.43628 60.2016 3.1877C60.0071 2.93912 59.7585 2.74818 59.4559 2.61488C59.1568 2.47798 58.8272 2.40773 58.4669 2.40413C58.1175 2.40413 57.8058 2.46357 57.532 2.58246C57.2618 2.69774 57.0475 2.85626 56.889 3.05801C56.7305 3.25975 56.6512 3.49032 56.6512 3.74971C56.6512 4.01271 56.7233 4.22346 56.8674 4.38198C57.0151 4.54049 57.1952 4.66478 57.4078 4.75485C57.6239 4.84492 57.8329 4.91877 58.0346 4.97641L59.5585 5.42494C59.717 5.46817 59.9026 5.53122 60.1151 5.61408C60.3313 5.69334 60.5403 5.80862 60.742 5.95993C60.9474 6.10764 61.1167 6.30218 61.25 6.54356C61.3833 6.78494 61.4499 7.09116 61.4499 7.46223C61.4499 7.8225 61.3779 8.14494 61.2338 8.42954C61.0933 8.71415 60.8933 8.95373 60.6339 9.14827C60.3781 9.34281 60.0773 9.49052 59.7315 9.5914C59.3892 9.69587 59.0145 9.74811 58.6074 9.74811Z" fill="black"/>
<path d="M64.6351 9.58599V2.56625H61.9169V1.80429H68.1477V2.56625H65.4295V9.58599H64.6351Z" fill="black"/>
</svg>
